<svg xmlns="http://www.w3.org/2000/svg" width="128" height="128" viewBox="0 0 128 128">
  <defs>
    <radialGradient id="bg" cx="40%" cy="30%" r="80%">
      <stop offset="0%" stop-color="#2dd4ff" stop-opacity="0.35"/>
      <stop offset="55%" stop-color="#1d4ed8" stop-opacity="0.55"/>
      <stop offset="100%" stop-color="#050b1a"/>
    </radialGradient>
    <linearGradient id="cap" x1="0" y1="0" x2="1" y2="1">
      <stop offset="0%" stop-color="#ffffff"/>
      <stop offset="100%" stop-color="#dbeafe"/>
    </linearGradient>
  </defs>

  <circle cx="64" cy="64" r="60" fill="url(#bg)"/>
  <circle cx="64" cy="64" r="60" fill="none" stroke="#93c5fd" stroke-opacity="0.25" stroke-width="2"/>

  <!-- Graduation cap (simple, bold) -->
  <g transform="translate(0,2)">
    <path
      d="M64 28 22 46l42 18 42-18-42-18Zm-28 22v18c0 4 13 12 28 12s28-8 28-12V50l-28 12-28-12Z"
      fill="url(#cap)"
    />
    <path
      d="M106 48v22c0 2-2 4-4 4s-4-2-4-4V52l8-4Z"
      fill="#93c5fd"
      fill-opacity="0.9"
    />
    <circle cx="102" cy="74" r="3.5" fill="#93c5fd" fill-opacity="0.9"/>
  </g>
</svg>
